<mxfile host="app.diagrams.net" modified="2022-01-01T00:00:00Z" agent="Mozilla/5.0 (Windows NT 10.0; Win64; x64) AppleWebKit/537.36 (KHTML, like Gecko) Chrome/97.0.4692.71 Safari/537.36" etag="lmIoZUwh70XIM5Jz5Ubt" version="12.6.7">
  <diagram name="Page-1" id="oOn0T9fzjFq-xq0Fns5p">
    <mxGraphModel dx="1428" dy="780" grid="1" gridSize="10" guides="1" tooltips="1" connect="1" arrows="1" fold="1" page="1" pageScale="1" pageWidth="827" pageHeight="1169" math="0" shadow="0">
      <root>
        <mxCell id="0"/>
        <mxCell id="1" parent="0"/>
        <mxCell id="2" value="" style="shape=actor;" vertex="1" parent="1">
          <mxGeometry x="140" y="160" width="30" height="50" as="geometry"/>
        </mxCell>
        <mxCell id="3" value="" style="ellipse;shape=cloud;fillColor=#ffffff;strokeColor=#000000;" vertex="1" parent="1">
          <mxGeometry x="380" y="160" width="80" height="80" as="geometry"/>
        </mxCell>
        <mxCell id="4" value="" style="ellipse;shape=cloud;fillColor=#ffffff;strokeColor=#000000;" vertex="1" parent="1">
          <mxGeometry x="620" y="160" width="80" height="80" as="geometry"/>
        </mxCell>
        <mxCell id="5" value="" style="ellipse;shape=cloud;fillColor=#ffffff;strokeColor=#000000;" vertex="1" parent="1">
          <mxGeometry x="860" y="160" width="80" height="80" as="geometry"/>
        </mxCell>
        <mxCell id="6" value="" style="ellipse;shape=cloud;fillColor=#ffffff;strokeColor=#000000;" vertex="1" parent="1">
          <mxGeometry x="1100" y="160" width="80" height="80" as="geometry"/>
        </mxCell>
        <mxCell id="7" value="" style="shape=component;rounded=1;" vertex="1" parent="1">
          <mxGeometry x="140" y="330" width="30" height="50" as="geometry"/>
        </mxCell>
        <mxCell id="8" value="" style="shape=component;rounded=1;" vertex="1" parent="1">
          <mxGeometry x="380" y="330" width="30" height="50" as="geometry"/>
        </mxCell>
        <mxCell id="9" value="" style="shape=component;rounded=1;" vertex="1" parent="1">
          <mxGeometry x="620" y="330" width="30" height="50" as="geometry"/>
        </mxCell>
        <mxCell id="10" value="" style="shape=component;rounded=1;" vertex="1" parent="1">
          <mxGeometry x="860" y="330" width="30" height="50" as="geometry"/>
        </mxCell>
        <mxCell id="11" value="" style="shape=component;rounded=1;" vertex="1" parent="1">
          <mxGeometry x="1100" y="330" width="30" height="50" as="geometry"/>
        </mxCell>
        <mxCell id="12" value="Users" style="text;html=1;strokeColor=none;fillColor=none;align=center;verticalAlign=middle;whiteSpace=wrap;rounded=0;" vertex="1" parent="1">
          <mxGeometry x="100" y="220" width="100" height="30" as="geometry"/>
        </mxCell>
        <mxCell id="13" value="Roles" style="text;html=1;strokeColor=none;fillColor=none;align=center;verticalAlign=middle;whiteSpace=wrap;rounded=0;" vertex="1" parent="1">
          <mxGeometry x="340" y="220" width="100" height="30" as="geometry"/>
        </mxCell>
        <mxCell id="14" value="Categories" style="text;html=1;strokeColor=none;fillColor=none;align=center;verticalAlign=middle;whiteSpace=wrap;rounded=0;" vertex="1" parent="1">
          <mxGeometry x="580" y="220" width="100" height="30" as="geometry"/>
        </mxCell>
        <mxCell id="15" value="Events" style="text;html=1;strokeColor=none;fillColor=none;align=center;verticalAlign=middle;whiteSpace=wrap;rounded=0;" vertex="1" parent="1">
          <mxGeometry x="820" y="220" width="100" height="30" as="geometry"/>
        </mxCell>
        <mxCell id="16" value="TicketTypes" style="text;html=1;strokeColor=none;fillColor=none;align=center;verticalAlign=middle;whiteSpace=wrap;rounded=0;" vertex="1" parent="1">
          <mxGeometry x="1060" y="220" width="100" height="30" as="geometry"/>
        </mxCell>
        <mxCell id="17" value="Reservations" style="text;html=1;strokeColor=none;fillColor=none;align=center;verticalAlign=middle;whiteSpace=wrap;rounded=0;" vertex="1" parent="1">
          <mxGeometry x="1300" y="220" width="100" height="30" as="geometry"/>
        </mxCell>
        <mxCell id="18" value="id: bigint\nrole_id: bigint\nname: varchar\nemail: varchar\navatar: varchar\nbio: varchar" style="text;html=1;strokeColor=none;fillColor=none;align=left;verticalAlign=top;whiteSpace=wrap;rounded=0;" vertex="1" parent="1">
          <mxGeometry x="80" y="250" width="160" height="120" as="geometry"/>
        </mxCell>
        <mxCell id="19" value="id: bigint\nname: varchar" style="text;html=1;strokeColor=none;fillColor=none;align=left;verticalAlign=top;whiteSpace=wrap;rounded=0;" vertex="1" parent="1">
          <mxGeometry x="320" y="250" width="160" height="60" as="geometry"/>
        </mxCell>
        <mxCell id="20" value="id: bigint\nname: varchar" style="text;html=1;strokeColor=none;fillColor=none;align=left;verticalAlign=top;whiteSpace=wrap;rounded=0;" vertex="1" parent="1">
          <mxGeometry x="560" y="250" width="160" height="60" as="geometry"/>
        </mxCell>
        <mxCell id="21" value="id: bigint\ntitle: varchar\ndescription: text\nimage: varchar\ndate: datetime\nlocation: varchar\navailable_seats: int\ncategory_id: bigint\nuser_id: bigint\nacceptation: tinyint\npublished: tinyint" style="text;html=1;strokeColor=none;fillColor=none;align=left;verticalAlign=top;whiteSpace=wrap;rounded=0;" vertex="1" parent="1">
          <mxGeometry x="800" y="250" width="160" height="180" as="geometry"/>
        </mxCell>
        <mxCell id="22" value="id: bigint\nname: varchar\ndescription: varchar" style="text;html=1;strokeColor=none;fillColor=none;align=left;verticalAlign=top;whiteSpace=wrap;rounded=0;" vertex="1" parent="1">
          <mxGeometry x="1040" y="250" width="160" height="90" as="geometry"/>
        </mxCell>
        <mxCell id="23" value="id: bigint\nevent_id: bigint\nuser_id: bigint\nstatus: enum\nreservation_code\ncreated_at: timestamp\nupdated_at: timestamp\nticket_type_id: bigint" style="text;html=1;strokeColor=none;fillColor=none;align=left;verticalAlign=top;whiteSpace=wrap;rounded=0;" vertex="1" parent="1">
          <mxGeometry x="1280" y="250" width="160" height="180" as="geometry"/>
        </mxCell>
        <mxCell id="24" value="" style="edgeStyle=orthogonalEdgeStyle;rounded=0;orthogonalLoop=1;jettySize=auto;html=1;" edge="1" parent="1" source="2" target="3">
          <mxGeometry relative="1" as="geometry"/>
        </mxCell>
        <mxCell id="25" value="" style="edgeStyle=orthogonalEdgeStyle;rounded=0;orthogonalLoop=1;jettySize=auto;html=1;" edge="1" parent="1" source="3" target="4">
          <mxGeometry relative="1" as="geometry"/>
        </mxCell>
        <mxCell id="26" value="" style="edgeStyle=orthogonalEdgeStyle;rounded=0;orthogonalLoop=1;jettySize=auto;html=1;" edge="1" parent="1" source="4" target="5">
          <mxGeometry relative="1" as="geometry"/>
        </mxCell>
        <mxCell id="27" value="" style="edgeStyle=orthogonalEdgeStyle;rounded=0;orthogonalLoop=1;jettySize=auto;html=1;" edge="1" parent="1" source="5" target="6">
          <mxGeometry relative="1" as="geometry"/>
        </mxCell>
        <mxCell id="28" value="" style="edgeStyle=orthogonalEdgeStyle;rounded=0;orthogonalLoop=1;jettySize=auto;html=1;" edge="1" parent="1" source="2" target="7">
          <mxGeometry relative="1" as="geometry"/>
        </mxCell>
        <mxCell id="29" value="" style="edgeStyle=orthogonalEdgeStyle;rounded=0;orthogonalLoop=1;jettySize=auto;html=1;" edge="1" parent="1" source="3" target="8">
          <mxGeometry relative="1" as="geometry"/>
        </mxCell>
        <mxCell id="30" value="" style="edgeStyle=orthogonalEdgeStyle;rounded=0;orthogonalLoop=1;jettySize=auto;html=1;" edge="1" parent="1" source="4" target="9">
          <mxGeometry relative="1" as="geometry"/>
        </mxCell>
        <mxCell id="31" value="" style="edgeStyle=orthogonalEdgeStyle;rounded=0;orthogonalLoop=1;jettySize=auto;html=1;" edge="1" parent="1" source="5" target="10">
          <mxGeometry relative="1" as="geometry"/>
        </mxCell>
        <mxCell id="32" value="" style="edgeStyle=orthogonalEdgeStyle;rounded=0;orthogonalLoop=1;jettySize=auto;html=1;" edge="1" parent="1" source="6" target="11">
          <mxGeometry relative="1" as="geometry"/>
        </mxCell>
        <mxCell id="33" value="created_by" style="text;html=1;strokeColor=none;fillColor=none;align=center;verticalAlign=middle;whiteSpace=wrap;rounded=0;" edge="1" parent="1">
          <mxGeometry relative="1" as="geometry"/>
        </mxCell>
        <mxCell id="34" value="belongs_to" style="text;html=1;strokeColor=none;fillColor=none;align=center;verticalAlign=middle;whiteSpace=wrap;rounded=0;" edge="1" parent="1">
          <mxGeometry relative="1" as="geometry"/>
        </mxCell>
        <mxCell id="35" value="for_event" style="text;html=1;strokeColor=none;fillColor=none;align=center;verticalAlign=middle;whiteSpace=wrap;rounded=0;" edge="1" parent="1">
          <mxGeometry relative="1" as="geometry"/>
        </mxCell>
        <mxCell id="36" value="booked_by" style="text;html=1;strokeColor=none;fillColor=none;align=center;verticalAlign=middle;whiteSpace=wrap;rounded=0;" edge="1" parent="1">
          <mxGeometry relative="1" as="geometry"/>
        </mxCell>
        <mxCell id="37" value="for_ticket" style="text;html=1;strokeColor=none;fillColor=none;align=center;verticalAlign=middle;whiteSpace=wrap;rounded=0;" edge="1" parent="1">
          <mxGeometry relative="1" as="geometry"/>
        </mxCell>
      </root>
    </mxGraphModel>
  </diagram>
</mxfile>
